<?xml version="1.0" encoding="utf-8"?>
<!-- Generator: Adobe Illustrator 19.0.0, SVG Export Plug-In . SVG Version: 6.00 Build 0)  -->
<svg version="1.1" id="Layer_1" xmlns="http://www.w3.org/2000/svg" xmlns:xlink="http://www.w3.org/1999/xlink" x="0px" y="0px"
	 viewBox="-88 90 322 322" style="enable-background:new -88 90 322 322;" xml:space="preserve">
<style type="text/css">
	.st0{fill:#FFFFFF;}
</style>
<g>
	<path class="st0" d="M182.6,245.3c0,3.9,0,7.6,0,11.4c-1.3,0-2.5,0-4,0c0,6.7,0,13.2,0,19.9c-1.3,0.1-2.3,0.1-3.6,0.2
		c0,4.9,0,9.8,0,15c-1.5,0.1-2.8,0.2-4.3,0.3c0,4,0,7.8,0,11.9c-1.3,0.1-2.3,0.1-3.6,0.2c0,2.5,0,5,0,7.7c-1.5,0.1-2.8,0.1-4.2,0.2
		c0,2.6,0,5,0,7.6c-1.3,0.1-2.3,0.2-3.7,0.3c0,2.5,0,5,0,7.7c-1.5,0-2.7,0-4,0c-0.1,1.3-0.2,2.3-0.3,3.6c-1.1,0.1-2.2,0.2-3.5,0.3
		c0,2.5,0,4.9,0,7.5c-1.3,0.1-2.3,0.2-3.6,0.3c-0.1,1.1-0.2,2.2-0.3,3.4c-1.3,0.1-2.5,0.1-3.9,0.2c0,2.5,0,5,0,7.6
		c-1.3,0.1-2.4,0.2-3.7,0.3c-0.1,1.3-0.1,2.5-0.2,3.9c-1.2,0-2.5,0-3.9,0c-0.1,1.3-0.2,2.4-0.3,3.7c-1.1,0.1-2.2,0.1-3.5,0.2
		c0,1.3,0,2.5,0,4c-2.7,0-5.1,0-7.8,0c-0.1,1.3-0.1,2.4-0.2,3.7c-2.6,0-5,0-7.6,0c-0.1,1.4-0.2,2.7-0.2,4.1c-9,0-18,0-27.1,0
		c0-1.3,0-2.5,0-4c-4.1,0-7.9,0-12,0c-0.1-1.3-0.1-2.4-0.2-3.6c-3.8,0-7.4,0-11.3,0c-0.1,1.1-0.2,2.2-0.3,3.5c-3.9,0-7.8,0-11.9,0
		c0,1.5,0,2.7,0,4c-9.1,0-18.1,0-27.2,0c-0.1-1.2-0.2-2.5-0.3-3.9c-1.1-0.1-2.1-0.1-3.4-0.2c-0.1-1.1-0.2-2.2-0.3-3.6
		c-2.5,0-5,0-7.7,0c0-1.5,0-2.7,0-4.1c-1.4,0-2.7,0-4.1,0c-0.1-1.3-0.2-2.4-0.3-3.7c-1.1-0.1-2.1-0.1-3.4-0.2
		c-0.1-1.2-0.1-2.5-0.2-4c-1.3-0.1-2.6-0.2-4-0.2c-0.1-1.1-0.1-2.1-0.2-3.4c-1-0.1-2.1-0.2-3.5-0.3c-0.1-1.2-0.1-2.5-0.2-3.9
		c-1.4-0.1-2.6-0.2-4.1-0.3c0-2.5,0-4.9,0-7.6c-1.3-0.1-2.3-0.2-3.6-0.3c-0.1-1.1-0.2-2.2-0.3-3.4c-1.1-0.1-2.1-0.1-3.4-0.2
		c0-2.5,0-5,0-7.6c-1.5-0.1-2.8-0.2-4.2-0.3c0-2.5,0-4.9,0-7.5c-1.3-0.1-2.3-0.2-3.7-0.3c0-3.7,0-7.4,0-11.3c-1.5,0-2.7,0-4.1,0
		c0-2.7,0-5.1,0-7.8c-1.3-0.1-2.4-0.2-3.7-0.3c0-3.9,0-7.7,0-11.8c-1.4-0.1-2.7-0.2-4.2-0.3c0-5,0-9.9,0-15
		c-1.3-0.1-2.3-0.1-3.5-0.2c0-14.4,0-28.8,0-43.3c1-0.1,2.1-0.2,3.5-0.3c0-3.8,0-7.5,0-11.4c1.5,0,2.7,0,4.1,0c0-2.7,0-5.1,0-7.8
		c1.3-0.1,2.3-0.1,3.6-0.2c0-2.5,0-4.9,0-7.6c1.5-0.1,2.8-0.2,4.2-0.3c0.1-1.1,0.1-2.1,0.2-3.4c1-0.1,2.1-0.2,3.5-0.3
		c0.1-1.2,0.1-2.5,0.2-3.9c1.4-0.1,2.6-0.2,4-0.3c0.1-1.1,0.1-2.1,0.2-3.4c1.1-0.1,2.2-0.2,3.5-0.3c0.1-1.3,0.2-2.6,0.3-4
		c1.1-0.1,2.1-0.1,3.4-0.2c0.1-1.1,0.2-2.2,0.3-3.5c2.5,0,5,0,7.6,0c0.1-1.5,0.1-2.7,0.2-4.1c3.9,0,7.8,0,11.8,0
		c0.1-1.3,0.2-2.4,0.3-3.8c5.2,0,10.3,0,15.5,0c0.1-1.3,0.1-2.3,0.2-3.5c3.8,0,7.5,0,11.4,0c0.1,1,0.1,2.1,0.2,3.4
		c3.7,0,7.4,0,11.3,0c0.1,1.3,0.2,2.4,0.3,3.8c3.9,0,7.8,0,11.9,0c0,1.5,0,2.7,0,4c3.9,0,7.6,0,11.5,0c0.1-1.2,0.1-2.4,0.2-3.9
		c3.9,0,7.7,0,11.8,0c0.1-1.3,0.2-2.4,0.3-3.8c3.7,0,7.5,0,11.3,0c0.1-1.3,0.1-2.3,0.2-3.5c3.7,0,7.5,0,11.4,0
		c0.1,1.1,0.1,2.2,0.2,3.4c6.6,0,13,0,19.7,0c0.1,1.3,0.2,2.3,0.3,3.7c3.7,0,7.5,0,11.3,0c0,1.5,0,2.7,0,4.1c1.4,0,2.7,0,4.1,0
		c0.1,1.3,0.2,2.4,0.3,3.7c2.3,0,4.6,0,7.1,0c0.1,1.4,0.2,2.7,0.2,4.1c1.3,0.1,2.6,0.2,4,0.3c0.1,1.1,0.1,2.1,0.2,3.4
		c1.1,0.1,2.2,0.2,3.5,0.3c0,2.5,0,5,0,7.6c1.5,0,2.7,0,4.1,0c0,1.4,0,2.7,0,4.1c1.3,0.1,2.4,0.2,3.8,0.3c0,3.8,0,7.5,0,11.4
		c1.5,0,2.7,0,4.1,0c0,3.9,0,7.6,0,11.5c1.3,0.1,2.3,0.1,3.6,0.2c0,6.5,0,13,0,19.7C179.9,245.2,181.2,245.2,182.6,245.3z"/>
	<path class="st0" d="M41.4,155c-1.3-0.1-2.3-0.1-3.5-0.2c0-2.6,0-5,0-7.6c-1.4-0.1-2.7-0.2-4.1-0.2c0-5.2,0-10.3,0-15.5
		c5.1,0,10.2,0,15.5,0c0.1,1.2,0.1,2.5,0.2,4c2.5,0,5,0,7.7,0c0.1,1.3,0.1,2.3,0.2,3.5c1.1,0.1,2.2,0.2,3.5,0.3c0,2.5,0,5,0,7.6
		c1.5,0.1,2.6,0.1,4.1,0.2c0.1,1.2,0.2,2.5,0.3,3.9c1.1,0.1,2.2,0.2,3.4,0.3c0,5.2,0,10.3,0,15.5c-5.1,0-10.2,0-15.5,0
		c-0.1-1.2-0.1-2.5-0.2-4c-2.5,0-5,0-7.7,0c-0.1-1.3-0.1-2.3-0.2-3.5c-1.1-0.1-2.2-0.2-3.5-0.3C41.5,157.7,41.5,156.5,41.4,155z"/>
	<path class="st0" d="M76.6,151.2c1.6,0,2.8,0,4.2,0c0-1.4,0-2.6,0-4c1.2-0.1,2.3-0.2,3.6-0.3c0.1-1.1,0.2-2.2,0.3-3.4
		c1.3-0.1,2.5-0.1,3.9-0.2c0.1-1.2,0.2-2.5,0.2-3.9c3.7,0,7.4,0,11.3,0c0,1.2,0,2.4,0,3.9c-1,0.1-2.1,0.2-3.4,0.3
		c0,3.7,0,7.4,0,11.3c-1.5,0.1-2.8,0.2-4.2,0.3c0,1.3,0,2.5,0,3.9c-1.2,0.1-2.3,0.2-3.6,0.3c-0.1,1.1-0.2,2.2-0.3,3.4
		c-1.3,0.1-2.4,0.1-3.9,0.2c-0.1,1.2-0.2,2.5-0.2,3.9c-3.7,0-7.4,0-11.3,0c0-2.5,0-5,0-7.6c1.1-0.1,2.1-0.1,3.4-0.2
		C76.6,156.5,76.6,154,76.6,151.2z"/>
</g>
</svg>
