<?xml version="1.0" encoding="utf-8"?>
<!-- Generator: Adobe Illustrator 19.0.0, SVG Export Plug-In . SVG Version: 6.00 Build 0)  -->
<svg version="1.1" id="Layer_1" xmlns="http://www.w3.org/2000/svg" xmlns:xlink="http://www.w3.org/1999/xlink" x="0px" y="0px"
	 viewBox="-88 90 322 322" style="enable-background:new -88 90 322 322;" xml:space="preserve">
<style type="text/css">
	.st0{fill:#FFFFFF;}
</style>
<g>
	<line id="XMLID_17_" class="st0" x1="190.8" y1="266.8" x2="189.5" y2="266.8"/>
	<line id="XMLID_15_" class="st0" x1="209.2" y1="248.3" x2="209.2" y2="246.4"/>
	<path class="st0" d="M127.3,306.9c-2.1,0-4.2,0-6.5,0c-0.1-1.1-0.2-2-0.3-3.1c-1-0.1-1.9-0.2-2.9-0.3c-0.1-0.9-0.3-1.8-0.5-3.1
		c-1.7,0-3.6,0-5.6,0c-0.1-1.2-0.2-2.2-0.3-3.3c-1.1-0.1-2-0.2-3.1-0.2c-0.1-1.1-0.2-2.1-0.3-3.2c-2.2,0-4.1,0-6.3,0
		c-0.1-1.1-0.2-2.1-0.2-2.2c-2.2-1.6-3.7-2.8-5.8-4.4c0,2.5,0,4.2,0,6.2c-1.2,0.2-2.2,0.5-3.4,0.7c0,5,0,10.1,0,15.3
		c-1.1,0.2-2.1,0.3-3.2,0.5c0,7.2,0,14.4,0,21.9c-1.2,0.3-2.2,0.5-3.4,0.7c0,5,0,10.1,0,15.3c-1.1,0.2-2,0.3-3.4,0.5
		c0,2.9,0.3,5.9-0.1,8.8c-0.4,2.4,2.2,6-2.5,7.4c0,6,0,12.1,0,18.5c-1.1,0.2-2,0.3-3.4,0.5c0,6.3,0,12.6,0,19c-1.1,0-2.2,0-3.3,0
		c0-3.2,0-6.4,0-9.8c-1.1-0.1-2.1-0.2-3.2-0.3c0-5.2,0-10.2,0-15.4c-1.2-0.2-2.2-0.4-3.4-0.6c0-5.3-0.1-10.5,0-15.6
		c0-2,0.1-3.8-2.7-3.6c0-4.1,0-8,0-12.1c-1-0.2-1.9-0.3-3.1-0.5c-0.1-0.9-0.1-1.8-0.2-2.3c1.4-0.9,2.5-1.5,3.6-2.2
		c-0.1-0.3-0.3-0.6-0.4-1c-1-0.2-2-0.4-3.2-0.6c0-5.1,0-10.2,0-15.4c-1.1-0.1-2.1-0.2-3.2-0.4c0-5.1,0-10.1,0-15.4
		c-1.2-0.2-2.2-0.4-3.4-0.6c0-6.2,0-12.4,0-18.7c-1.9,0-3.7,0-4.9,0c-1.2,1.1-2.3,2.1-3.4,3.1c-0.2-0.2-0.5-0.4-0.7-0.6
		c-0.2,0.9-0.3,1.9-0.5,3c-0.9,0.1-1.8,0.2-3,0.4c-0.1,1-0.2,1.9-0.2,2.9c-1,0.1-1.9,0.2-2.9,0.3c-0.1,0.9-0.3,1.8-0.5,3
		c-1.9,0-3.9,0-6,0c-0.3,1.2-0.5,2.2-0.7,3.4c-1.7,0-3.5,0-5.4,0c-0.2,1.1-0.3,2.1-0.4,2.5c-2.2,1.5-4,2.8-6.4,4.5
		c0,0.1-0.2,1.1-0.4,2.3c-1.9,0-3.8,0-5.8,0l0.1,0.1c0.4-2,0.9-4,1.3-5.9c1.5-0.1,3-0.2,4.7-0.3c0-1.2,0-2.2,0-3.2l-0.1,0.1
		c1-0.1,2.1-0.1,3.2-0.2c0.1-1.2,0.1-2.2,0.2-3.2l-0.1,0.1c1-0.1,2.1-0.1,3.2-0.2c0.1-1.2,0.1-2.2,0.2-3.2c0,0-0.1,0.1-0.1,0.1
		c1.1-0.1,2.1-0.1,3.3-0.2c0-1.2,0-2.1,0-3.1c2-2,4-4,6.1-6.1c1,0,2.1,0,3.2,0c0.1-1.3,0.1-2.3,0.1-3.3l-0.1,0.1
		c1-0.1,2.1-0.1,3.2-0.2c0.1-1.2,0.1-2.2,0.2-3.2c0,0-0.1,0.1-0.1,0.1c1-0.1,2.1-0.1,3.2-0.2c0.1-1.2,0.1-2.2,0.2-3.2l-0.1,0.1
		c1.1-0.1,2.1-0.1,3.3-0.2c0-1.2,0-2.1,0-3.1c0.9-0.9,1.8-1.8,2.8-2.8c2.1,0,4.2,0,6.2,0c-0.1,0.3-0.3,0.6-0.4,0.9
		c1.2,0.8,2.4,1.7,4,2.8c0,0.2,0.1,1.2,0.2,2.1c7.4,0,14.5,0,21.5,0c0.2-1.1,0.3-2.1,0.5-3.2c2.1,0,4.1,0,6,0
		c-0.1-0.3-0.2-0.7-0.3-1c1-0.5,1.9-1.3,2.9-1.5c1.4-0.3,2.9-0.1,4.3-0.1c0.9,0.9,1.8,1.9,2.7,2.8c0,1,0,2.1,0,3.3
		c1.4,0,2.4,0,3.3,0l-0.1-0.1c0.1,1,0.1,2.1,0.2,3.2c1.2,0.1,2.2,0.1,3.2,0.2l-0.1-0.1c0.1,1,0.1,2.1,0.2,3.2
		c1.2,0.1,2.2,0.1,3.2,0.2l-0.1-0.1c0.1,1.1,0.1,2.1,0.2,3.3c1.2,0,2.1,0,3.1,0c0.9,0.9,1.8,1.9,2.7,2.8c0,1,0,2.1,0,3.3
		c1.4,0,2.4,0,3.3,0l-0.1-0.1c0.1,1,0.1,2.1,0.2,3.2c1.2,0.1,2.2,0.1,3.2,0.2l-0.1-0.1c0.1,1,0.1,2.1,0.2,3.2
		c1.2,0.1,2.2,0.1,3.2,0.2l-0.1-0.1c0.1,1,0.1,2.1,0.2,3.2c1.2,0.1,2.2,0.1,3.2,0.2l-0.1-0.1C127.3,304.7,127.3,305.8,127.3,306.9z"
		/>
	<path class="st0" d="M98.2,274.6c-0.9-0.9-1.8-1.9-2.7-2.8c0.9-2.4-2.1-6.1,2.8-7.1c0-2,0-3.9,0-5.9c1.2-0.1,2.1-0.3,3.1-0.4
		c0-5.3,0-10.3,0-15.4c-1.1-0.2-2.1-0.4-3.2-0.6c0-1.8,0-3.5,0-5.1c-0.3,0.1-0.7,0.2-1,0.3c-0.5-1.3-1.4-2.5-1.6-3.8
		c-0.3-2.3-0.1-4.6-0.1-6.9c0.9-0.9,1.8-1.8,2.8-2.8c1,0,2.1,0,3.2,0c0.1-1.3,0.1-2.3,0.1-3.3l-0.1,0.1c1-0.1,2.1-0.1,3.2-0.2
		c0.1-1.2,0.1-2.2,0.2-3.2l-0.1,0.1c1-0.1,2.1-0.1,3.2-0.2c0.1-1.2,0.1-2.2,0.2-3.2l-0.1,0.1c1.1-0.1,2.1-0.1,3.3-0.2
		c0-1.2,0-2.1,0-3.1c2-2,4-4,6.1-6.1c1,0,2.1,0,3.2,0c0.1-1.3,0.1-2.3,0.1-3.3l-0.1,0.1c1-0.1,2.1-0.1,3.2-0.2
		c0.1-1.2,0.1-2.2,0.2-3.2l-0.1,0.1c1-0.1,2.1-0.1,3.2-0.2c0.1-1.2,0.1-2.2,0.2-3.2l-0.1,0.1c1.1-0.1,2.1-0.1,3.4-0.2
		c0-1.1,0-2.1,0-3.1c1.7,0,3.5,0.1,2.6-2.6c1.4-0.1,2.3-0.1,3.3-0.2c0,0-0.1-0.1-0.1-0.1c0,1.9,0,3.7,0,5.8
		c-0.8,0.1-1.7,0.3-2.3,0.4c-1.5,2.2-2.8,4.1-4.4,6.5c-0.3,0-1.2,0.1-2.4,0.2c0,2,0,3.7,0,5.6c-1.1,0.1-2.1,0.2-3.2,0.3
		c-0.1,1-0.2,2-0.2,3c-1.1,0.1-2,0.2-3.2,0.3c0,2.2,0,4.1,0,6.3c-1.1,0.1-2.1,0.2-3.2,0.3c-0.1,1-0.2,2-0.2,3
		c-1.1,0.1-2.1,0.2-3.1,0.3c0,3.1,0,5.9,0,9c5.4,0,10.6,0,16.1,0c0.2,1.2,0.4,2.2,0.7,3.4c6,0,11.9,0,18.1,0
		c0.1,1.1,0.3,2.1,0.4,3.2c6.2,0,12.3,0,18.7,0c0.2,1.2,0.4,2.2,0.6,3.4c4.3,0,8.5-0.1,12.6,0.1c1.3,0.1,2.5,1,3.8,1.6
		c-0.1,0.3-0.2,0.7-0.3,1c5,0,9.9,0,15.1,0c0.2,1.1,0.4,2.1,0.6,3.3c7.5,0,14.9,0,22.3,0c0,1.1,0,2.2,0,3.3c-1,0-2,0-3.1,0
		c-0.1,1.1-0.3,2.1-0.4,3.2c-5.1,0-10.1,0-15.4,0c-0.2,1.2-0.4,2.2-0.6,3.4c-6.6,0-13.1-0.1-19.6,0.1c-1.1,0-2.1,0.9-3.2,1.3
		c0.1,0.4,0.2,0.8,0.3,1.2c-3.9,0-7.9,0-12,0c-0.2,1.1-0.3,2.1-0.5,3.2c-6.1,0-12.3,0-18.6,0c-0.3,1.2-0.5,2.2-0.7,3.4
		c-5.9,0-11.9,0-18,0c-0.2,1.1-0.3,2.1-0.5,3.3c-6.2,0-12.4,0-18.8,0c0,2.1,0,3.8,0,5.8c2.2-0.1,3.1,1,2.4,3.3
		c1.3,0.1,2.2,0.2,3.4,0.3c0,2.1,0,4.1,0,6.2c1.1,0.2,2,0.3,3.2,0.5c0.1,0.9,0.2,1.8,0.3,2.1c2.3,1.6,4.1,2.8,6.4,4.5
		c0,1.3,0,3.2,0,5.4c1.2,0.2,2.2,0.5,2.4,0.5c1.3,1.7,2.2,2.9,3,4c0.2-0.1,0.5-0.3,0.7-0.4c0,2.1,0.1,4.2,0,6.3
		c-0.1,1.9-1,2.3-2.6,1.2c-0.1-1.5-0.2-3-0.3-4.7c-1.2,0-2.2,0-3.2,0l0.1,0.1c-0.1-1-0.1-2.1-0.2-3.2c-1.2-0.1-2.2-0.1-3.2-0.2
		l0.1,0.1c-0.1-1-0.1-2.1-0.2-3.2c-1.2-0.1-2.2-0.1-3.2-0.2l0.1,0.1c-0.1-1-0.1-2.1-0.2-3.2c-1.2-0.1-2.2-0.1-3.2-0.2l0.1,0.1
		c-0.1-1.1-0.1-2.1-0.2-3.3c-1.2,0-2.1,0-3.1,0c-0.9-0.9-1.8-1.9-2.7-2.8c0-1,0-2.1,0-3.3c-1.4,0-2.4,0-3.3,0c0,0,0.1,0.1,0.1,0.1
		c-0.1-1-0.1-2.1-0.2-3.2c-1.2-0.1-2.2-0.1-3.2-0.2c0,0,0.1,0.1,0.1,0.1c-0.1-1-0.1-2.1-0.2-3.2c-1.2-0.1-2.2-0.1-3.2-0.2l0.1,0.1
		c-0.1-1.1-0.1-2.1-0.2-3.3C100.2,274.6,99.2,274.6,98.2,274.6z"/>
	<path class="st0" d="M34.6,287.7c-2,2-4,4-6.1,6.1c-1,0-2.1,0-3.3,0c0,1.4,0,2.4,0,3.3l0.1-0.1c-1,0.1-2.1,0.1-3.2,0.2
		c-0.1,1.2-0.1,2.2-0.2,3.2c0,0,0.1-0.1,0.1-0.1c-1,0.1-2.1,0.1-3.2,0.2c-0.1,1.2-0.1,2.2-0.2,3.2c0,0,0.1-0.1,0.1-0.1
		c-1.1,0-2.2,0-3.3,0c0-2,0-4,0-6.2c1-0.2,2-0.4,3.1-0.6c0.1-0.9,0.2-1.7,0.3-2.8c0.9-0.1,1.8-0.3,3-0.5c0.1-0.9,0.2-1.8,0.4-3
		c1-0.1,1.9-0.2,3.1-0.3c0-1.9,0-3.6,0-5.6c1.1-0.2,2-0.3,2.5-0.4c1.5-2.2,2.8-4,4.5-6.4c0.1,0,1.1-0.2,2.2-0.3c0-2.9,0-5.8,0-9
		c-6.2,0-12.4,0-18.7,0c-0.2-1.2-0.4-2.2-0.6-3.4c-5.2,0-10.2,0-15.5,0c-0.1-1.1-0.2-2.1-0.3-3.2c-7.1,0-14.2,0-21.4,0
		c-0.2-1.2-0.4-2.2-0.6-3.4c-4.2,0-8.3-0.1-12.3,0c-2,0-3.7,0.1-3.6-2.7c-5.2,0-10.2,0-15.4,0c-0.2-1.1-0.4-2.1-0.6-3.3
		c-7.5,0-14.9,0-22.3,0c0-1.1,0-2.2,0-3.3c1,0,2,0,3.1,0c0.1-1.1,0.3-2.1,0.4-3.2c5.1,0,10.1,0,15.4,0c0.2-1.2,0.4-2.2,0.6-3.4
		c5.3,0,10.5-0.1,15.6,0c2,0,3.8,0.1,3.6-2.7c5.2,0,10.2,0,15.4,0c0.2-1,0.3-2,0.5-3.2c6.1,0,12.4,0,18.8,0c0.1-1.2,0.2-2.2,0.3-3.3
		c7.2,0,14.2,0,21.4,0c0.2-1.1,0.3-2.1,0.5-3.3c5.1,0,10.2,0,15.5,0c0-2.1,0-3.8,0-5.7c-0.8-0.1-1.7-0.3-2.2-0.4
		c-1.1-1.5-2.1-2.8-3-4.1c-0.2,0.1-0.4,0.2-0.6,0.3c0-1.9,0-3.7,0-5.8c-1-0.2-1.9-0.3-3.1-0.5c-0.1-0.8-0.3-1.8-0.5-2.9
		c-0.9-0.1-1.8-0.2-3-0.4c0-1.8,0-3.5,0-5.4c-1.1-0.2-2-0.3-3.2-0.5c-0.1-0.9-0.3-1.8-0.5-2.9c-0.9-0.1-1.8-0.2-2.1-0.3
		c-1.1-1.6-2-2.8-2.8-4c-0.3,0.1-0.5,0.3-0.8,0.4c0-2.5,0-5,0-7.6c0.4-0.3,0.8-0.5,1.2-0.8c0.5,0.7,0.9,1.4,1.4,2.1c0,1,0,2.1,0,3.3
		c1.4,0,2.4,0,3.3,0l-0.1-0.1c0.1,1,0.1,2.1,0.2,3.2c1.2,0.1,2.2,0.1,3.2,0.2c0,0-0.1-0.1-0.1-0.1c0.1,1,0.1,2.1,0.2,3.2
		c1.2,0.1,2.2,0.1,3.2,0.2l-0.1-0.1c0.1,1.1,0.1,2.1,0.2,3.3c1.2,0,2.1,0,3.1,0c0.9,0.9,1.8,1.9,2.7,2.8c0,1,0,2.1,0,3.3
		c1.4,0,2.4,0,3.3,0l-0.1-0.1c0.1,1,0.1,2.1,0.2,3.2c1.2,0.1,2.2,0.1,3.2,0.2l-0.1-0.1c0.1,1,0.1,2.1,0.2,3.2
		c1.2,0.1,2.2,0.1,3.2,0.2l-0.1-0.1c0.1,1,0.1,2.1,0.2,3.2c1.2,0.1,2.2,0.1,3.2,0.2l-0.1-0.1c0.1,1.1,0.1,2.1,0.2,3.3
		c1.2,0,2.1,0,3.1,0c0.9,0.9,1.8,1.9,2.7,2.8c0,2.3,0.2,4.6-0.1,6.9c-0.2,1.3-1,2.5-1.6,3.8c-0.4-0.1-0.7-0.2-1.1-0.3
		c0,1.7,0,3.4,0,5.3c-1.1,0.1-2.1,0.2-3,0.3c0,5.4,0,10.5,0,15.6c1.1,0.2,2.1,0.3,3.2,0.5c0,2.1,0,4.1,0,6c0.4-0.1,0.8-0.1,1.2-0.2
		c0.5,1,1.1,2,1.3,3.1c0.2,1.3,0.1,2.6,0.1,3.9c-0.9,0.9-1.8,1.8-2.8,2.8c-1,0-2.1,0-3.3,0c0,1.4,0,2.4,0,3.3l0.1-0.1
		c-1,0.1-2.1,0.1-3.2,0.2c-0.1,1.2-0.1,2.2-0.2,3.2l0.1-0.1c-1,0.1-2.1,0.1-3.2,0.2c-0.1,1.2-0.1,2.2-0.2,3.2l0.1-0.1
		c-1.1,0.1-2.1,0.1-3.3,0.2C34.6,285.8,34.6,286.7,34.6,287.7z"/>
	<path class="st0" d="M50.5,226.9c-0.9-0.9-1.8-1.9-2.7-2.8c0-1,0-2.1,0-3.3c-1.4,0-2.4,0-3.3,0c0,0,0.1,0.1,0.1,0.1
		c-0.1-1-0.1-2.1-0.2-3.2c-1.2-0.1-2.2-0.1-3.2-0.2l0.1,0.1c-0.1-1-0.1-2.1-0.2-3.2c-1.2-0.1-2.2-0.1-3.2-0.2c0,0,0.1,0.1,0.1,0.1
		c-0.1-1-0.1-2.1-0.2-3.2c-1.2-0.1-2.2-0.1-3.2-0.2c0,0,0.1,0.1,0.1,0.1c-0.1-1.1-0.1-2.1-0.2-3.3c-1.2,0-2.1,0-3.1,0
		c-0.9-0.9-1.8-1.9-2.7-2.8c0-1,0-2.1,0-3.3c-1.4,0-2.4,0-3.3,0c0,0,0.1,0.1,0.1,0.1c-0.1-1-0.1-2.1-0.2-3.2
		c-1.2-0.1-2.2-0.1-3.2-0.2c0,0,0.1,0.1,0.1,0.1c-0.1-1-0.1-2.1-0.2-3.2c-1.2-0.1-2.2-0.1-3.2-0.2l0.1,0.1c-0.1-1.1-0.1-2.1-0.2-3.3
		c-1.2,0-2.1,0-3.1,0c-0.5-0.7-0.9-1.4-1.4-2.1c0-0.2,0-0.3,0.1-0.5c2.4,0,4.8,0,6.6,0c1.6,1.3,2.8,2.3,4.6,3.8c0,0,0.1,0.8,0.2,1.9
		c0.9,0.1,1.9,0.3,3,0.5c0.1,0.9,0.2,1.8,0.4,3c1.8,0,3.5,0,5.4,0c0.2,1.1,0.3,2,0.5,3.2c0.9,0.1,1.8,0.3,2.9,0.5
		c0.1,0.9,0.2,1.8,0.3,2.1c1.6,1.1,2.8,2,4,2.8c-0.1,0.3-0.3,0.5-0.4,0.8c2,0,3.9,0,5.3,0c1.6,2.3,2.9,4.2,4.5,6.5
		c0.3,0,1.2,0,2.3,0c0-6.2,0-12.5,0-18.9c1.2-0.1,2.2-0.2,3.3-0.3c0-5.2,0-10.2,0-15.5c1.1-0.2,2.1-0.3,3.3-0.5c0-7,0-14.2,0-21.5
		c1.2-0.1,2.2-0.2,3.3-0.3c0-4.3,0-8.5,0-12.6c0.4,0.1,0.7,0.2,1.1,0.3c0.5-1.3,1.5-2.5,1.6-3.8c0.2-5.3,0.1-10.6,0.1-16.1
		c1.1-0.1,2.1-0.2,3.2-0.3c0-6,0-12,0-18.1c1.2-0.2,2.2-0.4,3.4-0.6c0-2.2,0-4.3,0-6.4c1.1,0,2.2,0,3.3,0c0,6.3,0,12.6,0,19.1
		c1.1,0.1,2.1,0.2,3.2,0.3c0,6.3,0,12.4,0,18.6c0.4-0.1,0.7-0.2,1.1-0.3c0.5,1.3,1.5,2.5,1.5,3.8c0.2,4.2,0.1,8.4,0.1,12.7
		c1.2,0.1,2.1,0.2,3.2,0.3c0,5.2,0,10.2,0,15.5c1.1,0.2,2.1,0.3,3.2,0.5c0,6.1,0,12.3,0,18.6c1.2,0.2,2.2,0.5,3.4,0.7
		c0,6,0,11.9,0,18c1.1,0.1,2.1,0.3,3.2,0.4c0.1,1,0.2,1.9,0.3,3c1.9,0,3.6,0,5.6,0c0.1-0.9,0.3-1.8,0.4-2.3c2.2-1.5,4.1-2.8,6.4-4.5
		c0-0.3,0.1-1.1,0.2-2.3c1.8,0,3.6,0,5.7,0c0.1-1.2,0.2-2.2,0.3-3.2c1-0.1,1.9-0.2,2.9-0.3c0.1-0.9,0.3-1.8,0.5-3.1
		c2.1,0,4.3,0,6.5,0c0,0-0.1-0.1-0.1-0.1c0,1.1,0,2.3,0,3.4c0,0,0.1-0.1,0.1-0.1c-1,0.1-2.1,0.1-3.2,0.2c-0.1,1.2-0.1,2.2-0.2,3.2
		l0.1-0.1c-1.1,0.1-2.1,0.1-3.3,0.2c0,1.1,0,2.1,0,3.1c-2,2-4,4-6.1,6.1c-1,0-2.1,0-3.3,0c0,1.4,0,2.4,0,3.3l0.1-0.1
		c-1,0.1-2.1,0.1-3.2,0.2c-0.1,1.2-0.1,2.2-0.2,3.2l0.1-0.1c-1,0.1-2.1,0.1-3.2,0.2c-0.1,1.2-0.1,2.2-0.2,3.2l0.1-0.1
		c-1.1,0.1-2.1,0.1-3.3,0.2c0,1.1,0,2.1,0,3.1c-0.9,0.9-1.8,1.8-2.8,2.8c-2.3,0-4.7,0.2-6.9-0.1c-1.3-0.2-2.5-1.1-3.8-1.6
		c0.1-0.4,0.2-0.7,0.3-1.1c-3.9,0-7.9,0-11.8,0c-0.2-1.2-0.3-2.1-0.4-3.1c-1,0-1.9,0-2.8,0c-0.2,1.1-0.4,2.1-0.6,3.2
		c-3,0-5.7,0-8.4,0c0.1,0.2,0.2,0.4,0.3,0.6c-1.3,0.9-2.5,1.8-4.1,3c0.2,1.9-0.6,3.1-3.3,2c-0.1-0.9-0.2-1.8-0.3-2.9
		C52.4,226.9,51.5,226.9,50.5,226.9z"/>
	<path class="st0" d="M12.6,312.9c0,1,0,2.1,0,3.3c-1.3,0-2.3,0-3.3,0l0.1,0.1c0-1,0-2.1,0-3.3C10.7,313,11.7,313,12.6,312.9
		C12.7,313,12.6,312.9,12.6,312.9z"/>
	<path class="st0" d="M9.3,316.2c0,1,0,2,0,3.2c-1,0.1-1.9,0.1-3.1,0.2c-0.1-1.1-0.1-2-0.2-3.3C7.3,316.3,8.4,316.3,9.3,316.2
		C9.4,316.3,9.3,316.2,9.3,316.2z"/>
	<path class="st0" d="M139.7,312.8c-0.9,0-1.8,0-2.9,0c-0.1-0.8-0.2-1.8-0.3-2.9c1.1-0.1,2-0.1,3.2-0.2
		C139.7,310.8,139.7,311.7,139.7,312.8z"/>
	<path class="st0" d="M12.7,185.6c-1.1,0-2.2,0.1-3.3,0.1c0-1,0-1.9,0-3.1c1.1-0.1,2-0.2,3.3-0.3C12.7,183.6,12.7,184.6,12.7,185.6z
		"/>
	<path class="st0" d="M9.4,185.7c0,1.1,0,2.2-0.1,3.3c-1,0-1.9,0-3.1,0c0-1-0.1-1.9-0.1-3.1C7.3,185.8,8.4,185.7,9.4,185.7z"/>
	<path class="st0" d="M140,185.8c0-1,0-1.9,0-3.1c1-0.1,1.9-0.1,3.1-0.2c0.1,1.1,0.1,2,0.2,3.3C142,185.7,140.9,185.7,140,185.8
		L140,185.8z"/>
	<path class="st0" d="M139.9,185.7c0,1,0,1.9,0,3.2c-1.2,0-2.3,0-3.5,0c0,0,0.1,0.1,0.1,0.1c0.1-1,0.1-1.9,0.2-3.2
		C137.9,185.8,138.9,185.8,139.9,185.7C140,185.8,139.9,185.7,139.9,185.7z"/>
	<path class="st0" d="M127.3,191.7c0,1.1,0,2.2,0,3.3c0,0,0.1-0.1,0.1-0.1c-1.1,0-2.3,0-3.4,0c0,0,0.1,0.1,0.1,0.1c0-1,0-1.9,0-3.3
		C125.2,191.7,126.2,191.7,127.3,191.7z"/>
	<path class="st0" d="M95.5,242.9c0,4.4,0,8.5,0,12.8c-1,0.2-2,0.4-3.2,0.6c0,2.9,0,5.8,0,8.9c-1.1,0.1-2.1,0.2-3.2,0.3
		c-0.1,1.1-0.2,2-0.3,3.1c-2.1,0-4.1,0-6.2,0c-0.2,1.1-0.3,2.1-0.5,3.2c-5.9,0-11.8,0-18,0c-0.2-0.9-0.4-1.9-0.6-3.1
		c-2,0-3.9,0-6.2,0c0-2.2,0-4.3,0-6.5c-1.3-0.1-2.2-0.2-3.3-0.3c-0.1-1.1-0.2-2-0.2-3.1c-1.1-0.1-2.1-0.2-3.1-0.3
		c0-5.3,0-10.3,0-15.6c1-0.1,2-0.2,3.1-0.3c0-1.9,0-3.6,0-5.5c1.1-0.2,2-0.3,3.2-0.5c0.1-0.9,0.3-1.8,0.4-2.9c0.9-0.1,1.9-0.2,3-0.3
		c0.1-1,0.2-2,0.3-3.1c4.1,0,8.1,0,12.2,0c0.2-1.1,0.3-2,0.4-3.2c0.9,0,1.9,0,3,0c0.1,1,0.2,1.9,0.3,3.1c3,0,5.8,0,8.9,0
		c0.2,1.1,0.3,2,0.5,3.2c0.9,0.1,1.8,0.2,3,0.4c0.1,1,0.2,1.9,0.2,3c1.1,0.1,2.1,0.2,3.2,0.3c0,2,0,3.7,0,5.6
		C93.3,242.6,94.3,242.8,95.5,242.9z M82.2,243.2c-0.2,0-0.5,0-0.7,0c-0.9-1-1.8-2-2.7-3.1c-3.9,0-8,0-11.2,0
		c-1.5,1.4-2.5,2.4-4,3.8c0,1.3,0,3.2,0,5.2c-1.2,0.2-2.1,0.3-3.2,0.4c0.1,1.1,0.1,2,0.2,2.9c1.1,0.1,2,0.2,2.8,0.3
		c-0.2,0.3-0.4,0.5-0.6,0.8c2.1,2,4.2,4,6.3,6c0.2-0.2,0.3-0.3,0.5-0.5c0.2,0.9,0.3,1.8,0.5,2.7c2.2,0,4.1,0,6.2,0
		c0.1-1.1,0.3-2,0.3-2c2.3-1.8,4-3.1,5.8-4.5C82.2,251.4,82.2,247.3,82.2,243.2z"/>
</g>
</svg>
