<?xml version="1.0" encoding="utf-8"?>
<!-- Generator: Adobe Illustrator 19.0.0, SVG Export Plug-In . SVG Version: 6.00 Build 0)  -->
<svg version="1.1" id="Layer_1" xmlns="http://www.w3.org/2000/svg" xmlns:xlink="http://www.w3.org/1999/xlink" x="0px" y="0px"
	 viewBox="-88 90 322 322" style="enable-background:new -88 90 322 322;" xml:space="preserve">
<style type="text/css">
	.st0{fill:none;}
	.st1{fill:#FFFFFF;}
</style>
<line id="XMLID_17_" class="st0" x1="-148.5" y1="341" x2="-158" y2="341"/>
<line id="XMLID_15_" class="st0" x1="-15" y1="207.5" x2="-15" y2="193.7"/>
<g id="XMLID_7_">
	<g id="XMLID_2_">
		<path id="XMLID_61_" class="st1" d="M73,360.7c-60.5,0-109.7-49.2-109.7-109.7S12.5,141.3,73,141.3S182.7,190.5,182.7,251
			S133.5,360.7,73,360.7z M73,142.5c-59.8,0-108.5,48.7-108.5,108.5S13.2,359.5,73,359.5S181.5,310.8,181.5,251
			C181.5,191.1,132.9,142.5,73,142.5z"/>
	</g>
	<g id="XMLID_3_">
		<path id="XMLID_58_" class="st1" d="M73,374.6C4.8,374.6-50.6,319.1-50.6,251c0-68.2,55.5-123.6,123.6-123.6
			c68.2,0,123.6,55.5,123.6,123.6S141.2,374.6,73,374.6z M73,132.2C7.5,132.2-45.8,185.5-45.8,251S7.5,369.8,73,369.8
			S191.8,316.5,191.8,251S138.5,132.2,73,132.2z"/>
	</g>
	<g id="XMLID_12_">
		<g id="XMLID_27_">
			<polygon id="XMLID_76_" class="st1" points="65.1,243 73,251 58.7,251 58.7,251 			"/>
		</g>
		<g id="XMLID_26_">
			<polygon id="XMLID_75_" class="st1" points="73,251 73,265.3 0.1,323.9 			"/>
		</g>
		<g id="XMLID_25_">
			<polygon id="XMLID_74_" class="st1" points="81,258.9 73,251 87.3,251 			"/>
		</g>
		<g id="XMLID_24_">
			<polygon id="XMLID_73_" class="st1" points="73,251 58.7,251 58.7,251 0.1,178.1 			"/>
		</g>
		<g id="XMLID_23_">
			<polygon id="XMLID_72_" class="st1" points="65.1,258.9 73,251 73,265.3 			"/>
		</g>
		<g id="XMLID_22_">
			<polygon id="XMLID_71_" class="st1" points="73,236.6 73,251 81,243 145.9,178.1 			"/>
		</g>
		<g id="XMLID_21_">
			<polygon id="XMLID_70_" class="st1" points="145.9,323.9 73,251 87.3,251 87.3,251 87.4,251 			"/>
		</g>
		<g id="XMLID_14_">
			<g id="XMLID_20_">
				
					<rect id="XMLID_57_" x="-10.192" y="206.748" transform="matrix(-0.7796 -0.6263 0.6263 -0.7796 -64.7117 391.9217)" class="st1" width="93.601" height="1.2"/>
			</g>
			<g id="XMLID_19_">
				<polygon id="XMLID_56_" class="st1" points="87.8,251.4 86.9,250.5 145.5,177.7 146.4,178.4 				"/>
			</g>
			<g id="XMLID_18_">
				
					<rect id="XMLID_55_" x="28.777" y="240.724" transform="matrix(-0.7792 -0.6268 0.6268 -0.7792 -127.9505 529.9741)" class="st1" width="1.2" height="93.601"/>
			</g>
			<g id="XMLID_16_">
				
					<rect id="XMLID_54_" x="62.723" y="294.032" transform="matrix(-0.7796 -0.6263 0.6263 -0.7796 10.3822 592.9177)" class="st1" width="93.601" height="1.2"/>
			</g>
		</g>
	</g>
	<g id="XMLID_13_">
		<line id="XMLID_79_" class="st0" x1="234" y1="251" x2="234" y2="251"/>
	</g>
	<g id="XMLID_11_">
		<line id="XMLID_80_" class="st0" x1="73" y1="412" x2="73" y2="412"/>
	</g>
	<g id="XMLID_10_">
		<g id="XMLID_38_">
			<polygon id="XMLID_69_" class="st1" points="73,251 57.2,266.8 57.2,266.8 55.4,251 			"/>
		</g>
		<g id="XMLID_37_">
			<polygon id="XMLID_68_" class="st1" points="88.8,266.8 73,412 73,251 			"/>
		</g>
		<g id="XMLID_34_">
			<polygon id="XMLID_67_" class="st1" points="90.6,251 73,251 88.8,235.2 			"/>
		</g>
		<g id="XMLID_36_">
			<polygon id="XMLID_66_" class="st1" points="73,251 57.2,266.8 57.2,266.8 -88,251 			"/>
		</g>
		<g id="XMLID_30_">
			<polygon id="XMLID_65_" class="st1" points="88.8,266.8 73,268.5 73,251 			"/>
		</g>
		<g id="XMLID_35_">
			<polygon id="XMLID_64_" class="st1" points="73,90 73,251 57.2,235.2 			"/>
		</g>
		<g id="XMLID_32_">
			<polygon id="XMLID_53_" class="st1" points="234,251 73,251 88.8,235.2 88.8,235.2 88.8,235.2 			"/>
		</g>
		<g id="XMLID_1_">
			<g id="XMLID_41_">
				<polygon id="XMLID_49_" points="73,251 -88,251 57.2,235.2 				"/>
				<path id="XMLID_50_" class="st1" d="M74.5,251.6H-88l-0.1-1.2l145.5-15.9L74.5,251.6z M-76.9,250.4H71.6L57,235.8L-76.9,250.4z"
					/>
			</g>
			<g id="XMLID_39_">
				<polygon id="XMLID_45_" points="88.8,235.2 88.8,235.2 73,251 73,90 				"/>
				<path id="XMLID_46_" class="st1" d="M72.4,252.4V90l1.2-0.1l15.8,145.2v0.2L72.4,252.4z M73.6,101.1v148.5L88.2,235L73.6,101.1z
					"/>
			</g>
			<g id="XMLID_33_">
				<polygon id="XMLID_31_" points="73,251 73,412 57.2,266.8 				"/>
				<path id="XMLID_42_" class="st1" d="M72.4,412.1L56.5,266.6l17.1-17.1V412L72.4,412.1z M57.8,267l14.6,133.9V252.4L57.8,267z"/>
			</g>
			<g id="XMLID_40_">
				<polygon id="XMLID_8_" points="234,251 88.8,266.8 73,251 				"/>
				<path id="XMLID_9_" class="st1" d="M88.6,267.4l-17.1-17.1H234l0.1,1.2L88.6,267.4z M74.5,251.6l14.6,14.6L223,251.6H74.5z"/>
			</g>
		</g>
	</g>
</g>
</svg>
