<?xml version="1.0" encoding="utf-8"?>
<!-- Generator: Adobe Illustrator 26.2.1, SVG Export Plug-In . SVG Version: 6.00 Build 0)  -->
<svg version="1.1" id="Layer_1" xmlns="http://www.w3.org/2000/svg" xmlns:xlink="http://www.w3.org/1999/xlink" x="0px" y="0px"
	 width="101px" height="43.814px" viewBox="0 0 101 43.814" style="enable-background:new 0 0 101 43.814;" xml:space="preserve">
<g>
	<path d="M97.047,35.542c-11.724-1.154-11.011-6.244-16.394-11.937C72.164,12.043,49.118,1.564,44.493,0
		c15.479,9.673,18.774,21.083,9.506,27.831c1.193-1.193,3.036-5.867,3.036-5.867C44.891,9.373,33.939,9.289,33.939,9.289
		c16.196,8.998,15.754,20.677,15.724,21.226c-0.013-0.2-0.6-1.619-13.23-5.829C22.446,20.024,0,24.903,0,24.904
		c56.483-6.401,47.69,30.928,93.252,14.855c0,0,1.108-0.273,2.486-0.681c-0.895-0.201-1.785-0.428-2.667-0.692
		c1.057,0.139,2.106,0.323,3.145,0.548C99.799,37.836,104.481,35.984,97.047,35.542z M62.394,28.729
		c2.743,2.687,5.438,5.486,8.065,8.43C67.304,34.684,64.616,31.844,62.394,28.729z M66.9,28.012
		c2.823,2.571,5.607,5.257,8.331,8.091C72.002,33.76,69.224,31.033,66.9,28.012z M71.331,27.111c2.9,2.452,5.768,5.022,8.587,7.743
		C76.619,32.644,73.755,30.033,71.331,27.111z"/>
</g>
</svg>
