<?xml version="1.0" encoding="utf-8"?>
<!-- Generator: Adobe Illustrator 26.2.1, SVG Export Plug-In . SVG Version: 6.00 Build 0)  -->
<svg version="1.1" id="Layer_1" xmlns="http://www.w3.org/2000/svg" xmlns:xlink="http://www.w3.org/1999/xlink" x="0px" y="0px"
	 width="199.355px" height="43.814px" viewBox="0 0 199.355 43.814" style="enable-background:new 0 0 199.355 43.814;"
	 xml:space="preserve">
<g>
	<path d="M97.047,35.542c-11.724-1.154-11.011-6.244-16.394-11.937C72.164,12.043,49.118,1.564,44.493,0
		c15.479,9.673,18.774,21.083,9.506,27.831c1.193-1.193,3.036-5.867,3.036-5.867C44.891,9.373,33.939,9.289,33.939,9.289
		c16.196,8.998,15.754,20.677,15.724,21.226c-0.013-0.2-0.6-1.619-13.23-5.829C22.446,20.024,0,24.903,0,24.904
		c56.483-6.401,47.69,30.928,93.252,14.855c0,0,1.108-0.273,2.486-0.681c-0.895-0.201-1.785-0.428-2.667-0.692
		c1.057,0.139,2.106,0.323,3.145,0.548C99.799,37.836,104.481,35.984,97.047,35.542z M62.394,28.729
		c2.743,2.687,5.438,5.486,8.065,8.43C67.304,34.684,64.616,31.844,62.394,28.729z M66.9,28.012
		c2.823,2.571,5.607,5.257,8.331,8.091C72.002,33.76,69.224,31.033,66.9,28.012z M71.331,27.111c2.9,2.452,5.768,5.022,8.587,7.743
		C76.619,32.644,73.755,30.033,71.331,27.111z"/>
</g>
<g>
	<path d="M96.454,26.565c-3.021,0-5.381-1.5-5.481-4.341h3.641c0.101,1.08,0.78,1.6,1.741,1.6c1,0,1.64-0.5,1.64-1.32
		c0-2.601-7.021-1.2-6.981-6.181c0-2.661,2.181-4.141,5.121-4.141c3.061,0,5.121,1.521,5.262,4.201h-3.701
		c-0.06-0.9-0.7-1.44-1.62-1.46c-0.82-0.02-1.44,0.4-1.44,1.28c0,2.44,6.941,1.34,6.941,6.042
		C101.575,24.605,99.734,26.565,96.454,26.565z"/>
	<path d="M102.913,12.382h10.862v2.741h-3.721v11.302h-3.421V15.123h-3.721V12.382z"/>
	<path d="M115.493,12.382h3.421v14.043h-3.421V12.382z"/>
	<path d="M133.955,12.382v14.043h-3.421l-5.721-8.662v8.662h-3.421V12.382h3.421l5.721,8.702v-8.702H133.955z"/>
	<path d="M149.535,16.823h-3.78c-0.521-0.94-1.48-1.44-2.761-1.44c-2.2,0-3.661,1.561-3.661,4.001c0,2.601,1.48,4.121,3.941,4.121
		c1.7,0,2.88-0.9,3.4-2.481h-4.341v-2.521h7.441v3.181c-0.72,2.421-3.061,4.841-6.762,4.841c-4.2,0-7.161-2.941-7.161-7.142
		s2.94-7.162,7.142-7.162C146.354,12.222,148.795,13.943,149.535,16.823z"/>
	<path d="M157.414,12.382c3.44,0,5.161,1.98,5.161,4.421c0,1.76-0.96,3.421-3.121,4.061l3.241,5.561h-3.861l-2.92-5.301h-0.82v5.301
		h-3.421V12.382H157.414z M157.214,15.223h-2.12v3.48h2.12c1.28,0,1.881-0.66,1.881-1.76
		C159.095,15.903,158.494,15.223,157.214,15.223z"/>
	<path d="M173.455,23.945h-5.241l-0.841,2.48h-3.58l5.081-14.043h3.961l5.081,14.043h-3.621L173.455,23.945z M170.834,16.163
		l-1.72,5.141h3.46L170.834,16.163z"/>
	<path d="M178.353,12.382h3.881l2.721,5.881l2.701-5.881h3.841l-4.861,9.402v4.641h-3.421v-4.641L178.353,12.382z"/>
	<path d="M109.174,43.766c-3.021,0-5.381-1.501-5.481-4.342h3.642c0.1,1.08,0.779,1.601,1.74,1.601c1,0,1.64-0.5,1.64-1.32
		c0-2.601-7.021-1.2-6.981-6.181c0-2.661,2.181-4.142,5.121-4.142c3.061,0,5.121,1.521,5.262,4.201h-3.701
		c-0.06-0.9-0.7-1.44-1.62-1.46c-0.82-0.021-1.44,0.399-1.44,1.279c0,2.441,6.941,1.341,6.941,6.042
		C114.295,41.805,112.455,43.766,109.174,43.766z"/>
	<path d="M124.994,32.322h-5.181v2.841h4.581v2.641h-4.581v3.081h5.181v2.74h-8.602V29.582h8.602V32.322z"/>
	<path d="M133.694,29.422c3.341,0,5.861,1.881,6.661,4.921h-3.761c-0.58-1.2-1.641-1.8-2.94-1.8c-2.101,0-3.541,1.561-3.541,4.041
		s1.44,4.041,3.541,4.041c1.3,0,2.36-0.601,2.94-1.801h3.761c-0.8,3.041-3.32,4.9-6.661,4.9c-4.141,0-7.062-2.94-7.062-7.141
		C126.633,32.383,129.554,29.422,133.694,29.422z"/>
	<path d="M142.393,29.582h3.42v8.402c0,1.66,0.82,2.62,2.441,2.62c1.62,0,2.48-0.96,2.48-2.62v-8.402h3.42v8.382
		c0,3.881-2.72,5.802-5.961,5.802c-3.261,0-5.801-1.921-5.801-5.802V29.582z"/>
	<path d="M162.294,29.582c3.44,0,5.161,1.98,5.161,4.421c0,1.761-0.96,3.421-3.121,4.062l3.241,5.561h-3.861l-2.92-5.301h-0.82
		v5.301h-3.421V29.582H162.294z M162.094,32.423h-2.12v3.48h2.12c1.28,0,1.881-0.66,1.881-1.761
		C163.975,33.103,163.374,32.423,162.094,32.423z"/>
	<path d="M169.593,29.582h3.421v14.043h-3.421V29.582z"/>
	<path d="M174.732,29.582h10.862v2.74h-3.721v11.303h-3.421V32.322h-3.721V29.582z"/>
	<path d="M186.212,29.582h3.881l2.721,5.881l2.701-5.881h3.841l-4.861,9.402v4.641h-3.421v-4.641L186.212,29.582z"/>
</g>
</svg>
