<?xml version="1.0" encoding="utf-8"?>
<!-- Generator: Adobe Illustrator 19.0.0, SVG Export Plug-In . SVG Version: 6.00 Build 0)  -->
<svg version="1.1" id="Layer_1" xmlns="http://www.w3.org/2000/svg" xmlns:xlink="http://www.w3.org/1999/xlink" x="0px" y="0px"
	 viewBox="-155 235.2 101 43.8" style="enable-background:new -155 235.2 101 43.8;" xml:space="preserve">
<g>
	<path d="M-58,270.7c-11.7-1.2-11-6.2-16.4-11.9c-8.5-11.6-31.5-22-36.2-23.6c15.5,9.7,18.8,21.1,9.5,27.8c1.2-1.2,3-5.9,3-5.9
		c-12.1-12.6-23.1-12.7-23.1-12.7c16.2,9,15.8,20.7,15.7,21.2c0-0.2-0.6-1.6-13.2-5.8c-14-4.7-36.4,0.2-36.4,0.2
		c56.5-6.4,47.7,30.9,93.3,14.9c0,0,1.1-0.3,2.5-0.7c-0.9-0.2-1.8-0.4-2.7-0.7c1.1,0.1,2.1,0.3,3.1,0.5
		C-55.2,273-50.5,271.2-58,270.7z M-92.6,263.9c2.7,2.7,5.4,5.5,8.1,8.4C-87.7,269.9-90.4,267-92.6,263.9z M-88.1,263.2
		c2.8,2.6,5.6,5.3,8.3,8.1C-83,268.9-85.8,266.2-88.1,263.2z M-83.7,262.3c2.9,2.5,5.8,5,8.6,7.7C-78.4,267.8-81.2,265.2-83.7,262.3
		z"/>
</g>
</svg>
