<?xml version="1.0" encoding="utf-8"?>
<!-- Generator: Adobe Illustrator 19.0.0, SVG Export Plug-In . SVG Version: 6.00 Build 0)  -->
<svg version="1.1" id="Layer_1" xmlns="http://www.w3.org/2000/svg" xmlns:xlink="http://www.w3.org/1999/xlink" x="0px" y="0px"
	 viewBox="-88 89.984 322.016 322.016" style="enable-background:new -88 89.984 322.016 322.016;" xml:space="preserve">
<style type="text/css">
	.st0{fill:none;}
	.st1{fill:#FFFFFF;}
</style>
<g id="XMLID_2_">
	<circle id="XMLID_3_" class="st0" cx="168.057" cy="346.041" r="8.004"/>
	<path id="XMLID_10_" class="st1" d="M189.655,329.068L76.111,221.961c11.492-24.623,7.079-54.833-13.248-75.159
		c-14.271-14.271-33.414-20.682-52.076-19.268l31.783,31.783l-12.941,48.296l-48.296,12.941l-31.783-31.783
		c-1.414,18.661,4.996,37.804,19.268,52.076c20.327,20.327,50.537,24.74,75.159,13.248l107.106,113.544
		c8.631,9.15,23.114,9.361,32.008,0.467l7.03-7.03C199.016,352.182,198.805,337.698,189.655,329.068z M162.397,351.701
		c-3.126-3.126-3.126-8.194,0-11.32c3.126-3.126,8.194-3.126,11.32,0c3.126,3.126,3.126,8.194,0,11.32
		C170.591,354.827,165.523,354.827,162.397,351.701z"/>
</g>
</svg>
